<?xml version="1.0" encoding="UTF-8"?>
<!DOCTYPE svg PUBLIC "-//W3C//DTD SVG 1.1//EN" "http://www.w3.org/Graphics/SVG/1.1/DTD/svg11.dtd">
<!-- Creator: CorelDRAW -->
<svg xmlns="http://www.w3.org/2000/svg" xml:space="preserve" width="86.5124mm" height="57.404mm" style="shape-rendering:geometricPrecision; text-rendering:geometricPrecision; image-rendering:optimizeQuality; fill-rule:evenodd; clip-rule:evenodd"
viewBox="0 0 86.5124 57.404"
 xmlns:xlink="http://www.w3.org/1999/xlink"
 xmlns:dc="http://purl.org/dc/elements/1.1/"
 xmlns:cc="http://creativecommons.org/ns#"
 xmlns:rdf="http://www.w3.org/1999/02/22-rdf-syntax-ns#"
 xmlns:svg="http://www.w3.org/2000/svg"
 xmlns:sodipodi="http://sodipodi.sourceforge.net/DTD/sodipodi-0.dtd"
 xmlns:inkscape="http://www.inkscape.org/namespaces/inkscape"
 sodipodi:version="0.32"
 inkscape:version="0.46"
 version="1.0"
 sodipodi:docname="Coat_of_arms_of_Vilayet-i_Trablusgarp.svg"
 inkscape:output_extension="org.inkscape.output.svg.inkscape">
 <defs>
  <style type="text/css">
   <![CDATA[
    .str0 {stroke:#006600;stroke-width:0.1763}
    .fil1 {fill:white}
    .fil0 {fill:#006600}
   ]]>
  </style>
 </defs>
 <g id="Layer_x0020_1">
  <metadata id="CorelCorpID_0Corel-Layer"/>
  <sodipodi:namedview inkscape:window-height="719" inkscape:window-width="1024" inkscape:pageshadow="2" inkscape:pageopacity="0.0" guidetolerance="10.0" gridtolerance="10.0" objecttolerance="10.0" borderopacity="1.0" bordercolor="#666666" pagecolor="#ffffff" id="base" showgrid="false" inkscape:zoom="1.7125382" inkscape:cx="382.78929" inkscape:cy="108.5" inkscape:window-x="-4" inkscape:window-y="-4" inkscape:current-layer="svg2"/>
  <sodipodi:namedview inkscape:window-height="719" inkscape:window-width="1024" inkscape:pageshadow="2" inkscape:pageopacity="0.0" guidetolerance="10.0" gridtolerance="10.0" objecttolerance="10.0" borderopacity="1.0" bordercolor="#666666" pagecolor="#ffffff" id="base" showgrid="false" inkscape:zoom="1.7125382" inkscape:cx="142.45718" inkscape:cy="63.93183" inkscape:window-x="0" inkscape:window-y="22" inkscape:current-layer="svg2"/>
  <polygon id="path2390" class="fil0 str0" points="0.1088,28.8124 0.1088,0.1043 43.3694,0.1043 86.63,0.1043 86.5626,28.7455 86.4953,57.3866 43.3021,57.4535 0.1088,57.5205 "/>
  <g id="_45149144">
   <path id="path2481" class="fil1" d="M34.5479 38.4265c0,4.7453 3.8572,8.5961 8.6025,8.5961 4.7452,0 8.5961,-3.8508 8.5961,-8.5961 0,-1.3175 -0.3014,-2.5642 -0.8319,-3.6805 -0.0133,3.2793 -2.8365,8.102 -7.7642,8.102 -4.9271,0 -7.7576,-4.7379 -7.7706,-8.102 -0.5304,1.1163 -0.8319,2.363 -0.8319,3.6805z"/>
   <path id="path2481_0" class="fil1" d="M55.1916 11.549c4.7453,0 8.5961,3.8572 8.5961,8.6025 0,4.7452 -3.8508,8.5961 -8.5961,8.5961 -1.3174,0 -2.5641,-0.3014 -3.6805,-0.8319 3.2793,-0.0133 8.102,-2.8366 8.102,-7.7642 0,-4.9271 -4.7379,-7.7576 -8.102,-7.7706 1.1164,-0.5304 2.3631,-0.8319 3.6805,-0.8319z"/>
   <path id="path2481_1" class="fil1" d="M31.2202 11.6046c-4.7453,0 -8.5961,3.8572 -8.5961,8.6025 0,4.7452 3.8508,8.5961 8.5961,8.5961 1.3175,0 2.5642,-0.3014 3.6805,-0.8319 -3.2793,-0.0133 -8.102,-2.8366 -8.102,-7.7642 0,-4.9271 4.7379,-7.7576 8.102,-7.7706 -1.1163,-0.5304 -2.363,-0.8319 -3.6805,-0.8319z"/>
  </g>
 </g>
</svg>
